<?xml version="1.0" standalone="no"?>
<!DOCTYPE svg PUBLIC "-//W3C//DTD SVG 20010904//EN"
 "http://www.w3.org/TR/2001/REC-SVG-20010904/DTD/svg10.dtd">
<svg version="1.0" xmlns="http://www.w3.org/2000/svg"
 width="318.000000pt" height="318.000000pt" viewBox="0 0 318.000000 318.000000"
 preserveAspectRatio="xMidYMid meet">
<metadata>
Created by potrace 1.13, written by Peter Selinger 2001-2015
</metadata>
<g transform="translate(0.000000,318.000000) scale(0.100000,-0.100000)"
fill="#000000" stroke="none">
<path d="M1440 2510 c-130 -18 -270 -83 -363 -169 -54 -50 -94 -104 -145 -193
-22 -39 -57 -171 -67 -253 -8 -65 25 -237 61 -313 33 -71 122 -188 174 -227
21 -16 42 -37 47 -45 4 -8 10 -139 13 -290 l5 -275 73 -3 72 -3 0 292 c0 276
-1 295 -21 336 -23 47 -102 124 -183 177 -61 41 -96 85 -96 121 0 26 6 29 93
64 19 7 27 17 25 29 -3 14 -15 17 -68 17 -36 1 -71 2 -78 3 -25 4 -33 52 -22
125 19 124 47 150 118 107 40 -25 58 -25 67 -3 4 13 -2 25 -22 41 -15 13 -38
33 -51 43 -30 26 -23 49 38 119 66 77 95 79 135 10 21 -36 35 -50 51 -50 42 0
35 47 -18 122 -19 26 22 63 91 82 107 30 122 22 130 -70 5 -57 9 -69 25 -72
27 -5 36 15 36 80 0 82 28 94 143 61 39 -11 64 -24 74 -40 15 -23 15 -28 -12
-77 -49 -91 -9 -121 47 -36 43 66 73 68 133 7 55 -54 71 -107 55 -182 -9 -41
-19 -60 -46 -83 -42 -36 -148 -67 -200 -59 -59 10 -74 30 -74 103 0 52 -3 65
-19 74 -34 17 -51 -12 -51 -85 0 -55 -3 -66 -22 -79 -26 -19 -71 -21 -101 -5
-12 7 -41 29 -65 51 -46 42 -75 46 -80 11 -2 -14 11 -34 42 -64 l46 -42 0 -70
c0 -86 -10 -96 -96 -97 -64 0 -81 -11 -68 -45 5 -11 22 -15 66 -15 107 0 98
43 98 -460 l0 -440 210 0 210 0 0 153 c0 83 4 157 8 164 5 7 54 12 144 15 116
2 140 6 155 21 15 15 19 42 23 175 l5 157 40 3 c76 4 104 12 110 31 5 15 -37
138 -66 190 -40 75 -82 194 -91 254 -28 208 -100 347 -241 463 -136 111 -329
168 -497 144z"/>
</g>
</svg>
